# xmcd CD database file
#
# Track frame offsets:
#	150
#	14433
#	29047
#	44333
#	63902
#	78355
#	94536
#	105430
#	116978
#	132374
#	143957
#
# Disc length: 2093 seconds
#
# Revision: 0
# Processed by: cddbd v1.5.2PL0 Copyright (c) Steve Scherf et al.
# Submitted via: CDex 1.51
#
DISCID=94082b0b
DTITLE=Eddie Rabbitt - All Time Greatest Hits
DYEAR=1900
DGENRE=Country
TTITLE0=I Love A Rainy Night
TTITLE1=Drivin' My Life Away
TTITLE2=Gone too far
TTITLE3=Suspicious
TTITLE4=I Can't Help Myself
TTITLE5=Rocky Mountain Music
TTITLE6=two Dollars In The Jukebox
TTITLE7=Do You right tonight
TTITLE8=Pour Me Another tequila
TTITLE9=Hearts On Fire
TTITLE10=Every Which Way But Loose
EXTD=
EXTT0=
EXTT1=
EXTT2=
EXTT3=
EXTT4=
EXTT5=
EXTT6=
EXTT7=
EXTT8=
EXTT9=
EXTT10=
PLAYORDER=
